<?xml version="1.0" encoding="utf-8"?>

<!DOCTYPE svg PUBLIC "-//W3C//DTD SVG 1.1//EN" "http://www.w3.org/Graphics/SVG/1.1/DTD/svg11.dtd">
<!-- Uploaded to: SVG Repo, www.svgrepo.com, Generator: SVG Repo Mixer Tools -->
<svg height="800px" width="800px" version="1.1" id="_x32_" xmlns="http://www.w3.org/2000/svg" xmlns:xlink="http://www.w3.org/1999/xlink" 
	 viewBox="0 0 512 512"  xml:space="preserve">
<style type="text/css">
	.st0{fill:#1677FF;}
</style>
<g>
	<path class="st0" d="M269.544,226.272V122.623h-86.534V42.35C109.27,49.314,45.182,65.854,0,88.403v349.774
		c38.674,16.666,155.178,31.473,261.455,31.473c100.1,0,202.067-14.807,250.545-26.309V226.272H269.544z M112.76,177.092
		c0-10.024,7.759-18.146,17.342-18.146c9.575,0,17.351,8.122,17.351,18.146v36.299h-17.351H112.76V177.092z M112.76,287.072
		c0-10.023,7.759-18.146,17.342-18.146c9.575,0,17.351,8.122,17.351,18.146v36.3h-17.351H112.76V287.072z M34.744,177.092
		c0-10.024,6.989-18.146,15.619-18.146c8.62,0,15.618,8.122,15.618,18.146v36.299H50.362H34.744V177.092z M34.744,284.105
		c0-10.015,6.989-18.144,15.619-18.144c8.62,0,15.618,8.13,15.618,18.144v36.3H50.362H34.744V284.105z M50.396,420.124
		l-15.626-7.176l-0.034-29.106c-0.008-10.016,6.981-18.154,15.61-18.163c8.621-0.017,15.626,8.106,15.626,18.12l0.042,36.299
		L50.396,420.124z M130.136,427.435l-17.351,0.025l-0.034-36.299c-0.017-10.032,7.742-18.163,17.326-18.171
		c9.584-0.008,17.35,8.105,17.368,18.128l0.034,36.308L130.136,427.435z M196.489,177.092c0-10.024,8.062-18.146,18.027-18.146
		c9.965,0,18.036,8.122,18.036,18.146v36.299h-18.036h-18.027V177.092z M196.489,291.518c0-10.032,8.062-18.154,18.027-18.154
		c9.965,0,18.036,8.122,18.036,18.154V327.8h-18.036h-18.027V291.518z M214.55,432.285l-18.036,0.009l-0.034-36.291
		c-0.018-10.023,8.054-18.153,18.01-18.17c9.964-0.009,18.044,8.105,18.052,18.137l0.042,36.291L214.55,432.285z M444.946,284.105
		c0-10.015,6.71-18.144,15.001-18.144c8.282,0,14.993,8.13,14.993,18.144v36.3h-14.993h-15.001V284.105z M366.694,287.072
		c0-10.023,7.454-18.146,16.658-18.146c9.204,0,16.666,8.122,16.666,18.146v36.3h-16.666h-16.658V287.072z M281.84,291.518
		c0-10.032,8.071-18.154,18.027-18.154c9.964,0,18.044,8.122,18.044,18.154V327.8h-18.044H281.84V291.518z M299.91,432.184
		l-18.036,0.025l-0.042-36.299c-0.009-10.032,8.054-18.154,18.018-18.171c9.956-0.008,18.036,8.105,18.053,18.137l0.042,36.299
		L299.91,432.184z M383.385,427.164l-16.666,0.018l-0.034-36.3c-0.009-10.023,7.438-18.162,16.64-18.17
		c9.204-0.008,16.666,8.106,16.684,18.137l0.034,36.291L383.385,427.164z M459.973,419.667l-15.002,0.009l-0.034-36.299
		c-0.009-10.016,6.702-18.154,14.984-18.163c8.291-0.009,15.019,8.105,15.019,18.128l0.042,29.098L459.973,419.667z"/>
</g>
</svg>